# xmcd
#
# Track frame offsets:
#	150
#	9289
#	21877
#	32605
#	43003
#	53284
#	64346
#	77486
#	87914
#	97187
#	108073
#	118163
#	129491
#	140091
#	153699
#	163092
#	172969
#	183134
#	195737
#	207291
#	216676
#	225439
#
# Disc length: 3149 seconds
#
# Revision: 0
# Processed by: cddbd v1.5.2PL0 Copyright (c) Steve Scherf et al.
# Submitted via: EasyCDDAExtractor 16.0.1.1
#
DISCID=280c4b16
DTITLE=Skeeter Davis - Blueberry Hill And Other Favorites and Skeeter Sings Stan
DTITLE=dards
DYEAR=1965
DGENRE=Country
TTITLE0=Blueberry Hill
TTITLE1=Where i Ought To Be
TTITLE2=The Little Music Box
TTITLE3=Lost To A Geisha Girl
TTITLE4=Walk Softly Darling
TTITLE5=The Face Of A Clown
TTITLE6=Somebody Else On Your Mind
TTITLE7=Homebreaker
TTITLE8=Optimistic
TTITLE9=Give Me Death
TTITLE10=When I Fall In Love
TTITLE11=All Of Me
TTITLE12=It Only Hurts For A Little While
TTITLE13=Dear Heart
TTITLE14=Fly Me To The Moon (In Other Words)
TTITLE15=Secret Love
TTITLE16=Cry Me A River
TTITLE17=Al-Di-La
TTITLE18=You Tell Me Your Dream
TTITLE19=Too Young
TTITLE20=I Wanna Be Loved By You
TTITLE21=Smile
EXTD=
EXTT0=
EXTT1=
EXTT2=
EXTT3=
EXTT4=
EXTT5=
EXTT6=
EXTT7=
EXTT8=
EXTT9=
EXTT10=
EXTT11=
EXTT12=
EXTT13=
EXTT14=
EXTT15=
EXTT16=
EXTT17=
EXTT18=
EXTT19=
EXTT20=
EXTT21=
PLAYORDER=
